<?xml version="1.0" standalone="no"?>
<!DOCTYPE svg PUBLIC "-//W3C//DTD SVG 20010904//EN"
 "http://www.w3.org/TR/2001/REC-SVG-20010904/DTD/svg10.dtd">
<svg version="1.0" xmlns="http://www.w3.org/2000/svg"
 width="1024.000000pt" height="1024.000000pt" viewBox="0 0 1024.000000 1024.000000"
 preserveAspectRatio="xMidYMid meet">

<g transform="translate(0.000000,1024.000000) scale(0.100000,-0.100000)"
fill="#000000" stroke="none">
<path d="M3579 8575 c-110 -15 -236 -57 -352 -118 -45 -23 -84 -44 -87 -47 -3
-3 -25 -21 -50 -40 -64 -49 -62 -48 -140 -125 -138 -137 -245 -292 -357 -516
-70 -141 -137 -304 -168 -409 -7 -25 -25 -80 -38 -122 -70 -216 -144 -586
-167 -838 -15 -152 -14 -412 1 -508 21 -135 66 -294 109 -384 23 -49 47 -88
53 -88 5 0 8 -3 4 -6 -3 -4 14 -27 38 -53 24 -25 52 -58 64 -72 20 -25 150
-95 226 -120 26 -9 87 -14 175 -14 125 1 142 3 226 32 50 17 117 46 148 65 31
18 66 37 77 43 10 5 19 13 19 17 0 5 4 8 10 8 8 0 65 40 111 78 58 48 332 242
343 242 3 0 24 13 48 28 24 16 59 33 79 39 32 9 40 8 67 -14 30 -23 34 -33 46
-124 6 -43 12 -60 38 -119 11 -25 20 -46 19 -48 -1 -1 8 -12 19 -24 11 -12 20
-26 20 -31 0 -11 174 -182 221 -217 18 -14 74 -49 124 -79 70 -43 99 -55 130
-54 21 0 41 6 43 12 2 6 8 11 14 11 6 0 25 10 42 23 17 13 56 36 86 51 109 54
138 75 133 95 -3 11 -17 21 -33 25 -16 3 -40 17 -54 31 -14 14 -30 25 -37 25
-24 0 -186 117 -250 180 -84 84 -119 144 -126 214 -8 86 16 142 91 214 68 64
131 98 312 167 54 21 105 43 113 49 7 5 49 22 92 36 44 15 76 30 72 35 -5 4 2
5 15 2 12 -3 22 -2 22 3 0 8 12 14 125 65 33 15 62 30 65 33 5 7 42 29 93 55
63 33 190 166 224 234 24 50 28 70 28 143 0 77 -3 90 -32 140 -32 56 -118 152
-127 142 -3 -3 -13 1 -22 9 -15 12 -16 10 -9 -21 4 -19 15 -43 25 -52 22 -21
36 -127 21 -154 -5 -11 -12 -31 -15 -45 -11 -50 -108 -133 -218 -187 -137 -66
-158 -75 -263 -112 -49 -18 -99 -36 -110 -40 -11 -4 -67 -24 -125 -43 -107
-36 -159 -54 -195 -68 -11 -4 -85 -33 -163 -64 -79 -30 -151 -62 -159 -70 -8
-8 -20 -15 -28 -15 -15 0 -108 -42 -127 -57 -7 -6 -44 -27 -83 -48 -103 -56
-105 -57 -170 -100 -68 -46 -65 -43 -125 -90 -25 -19 -56 -44 -70 -55 -58 -45
-177 -144 -210 -174 -102 -93 -182 -156 -191 -151 -5 4 -8 2 -7 -4 5 -18 -136
-98 -232 -132 -251 -90 -502 9 -626 247 -84 161 -120 372 -111 655 4 102 11
216 16 255 22 152 51 317 65 374 4 14 11 52 17 85 5 33 13 69 18 80 5 11 14
38 20 60 5 22 14 51 18 65 4 14 8 30 9 35 18 65 28 95 58 185 20 57 43 114 51
126 8 12 16 33 19 47 2 13 13 44 24 68 11 24 23 54 26 67 4 12 12 22 17 22 5
0 9 5 9 12 0 25 44 107 54 101 6 -3 8 -3 4 2 -8 8 13 66 32 87 6 7 27 38 48
69 97 148 256 328 290 329 6 0 12 5 12 10 0 6 4 10 9 10 6 0 25 14 43 30 18
17 38 30 44 30 6 0 17 7 24 15 7 8 23 15 35 15 12 0 35 10 50 22 15 12 49 25
75 29 26 4 69 17 95 29 35 16 62 21 101 18 30 -1 54 -1 54 2 0 3 37 4 82 4 45
-1 92 2 103 6 29 12 -195 12 -277 0 -260 -38 -501 -197 -694 -460 -89 -121
-98 -137 -182 -305 -165 -331 -285 -728 -359 -1190 -14 -87 -18 -170 -18 -395
1 -257 3 -294 22 -377 39 -166 109 -307 189 -378 206 -186 504 -178 774 20 72
54 180 143 225 188 52 51 268 222 346 274 296 199 529 303 1108 499 381 129
536 220 581 341 21 55 26 183 8 183 -4 0 -8 5 -8 12 0 6 -8 20 -17 31 -18 20
-18 20 9 3 19 -12 29 -30 34 -54 3 -21 10 -53 15 -72 12 -47 11 -63 -3 -54 -7
5 -8 3 -4 -5 11 -17 -3 -83 -15 -76 -5 4 -9 -3 -9 -13 0 -11 -7 -23 -16 -26
-8 -3 -12 -10 -9 -16 4 -6 -16 -32 -43 -58 -59 -57 -213 -139 -399 -212 -70
-28 -136 -55 -145 -60 -10 -6 -26 -10 -35 -10 -10 0 -29 -6 -43 -13 -14 -7
-76 -33 -138 -57 -92 -36 -109 -46 -90 -51 l23 -7 -23 -1 c-28 -1 -19 -21 9
-21 24 0 25 -18 2 -37 -16 -12 -15 -13 15 -8 17 4 32 4 32 2 0 -11 -81 -44
-86 -36 -9 15 -21 10 -27 -11 -7 -27 12 -26 71 3 26 13 72 33 102 45 330 125
563 232 679 309 70 47 71 48 71 33 0 -6 -15 -19 -32 -30 -18 -11 -27 -20 -20
-20 16 0 132 109 132 123 0 6 -10 1 -23 -11 -13 -12 -27 -22 -31 -22 -16 0 47
44 65 45 15 1 13 -4 -11 -34 -105 -132 -268 -226 -695 -401 -246 -101 -322
-140 -384 -199 -94 -89 -121 -189 -80 -296 18 -47 39 -76 103 -140 77 -77 234
-190 339 -245 26 -14 47 -28 47 -33 0 -4 -12 -13 -27 -19 -16 -7 -86 -45 -156
-86 -71 -40 -134 -71 -140 -69 -41 16 -229 144 -297 202 -146 124 -220 244
-244 396 -11 68 -18 87 -40 106 -34 29 -68 29 -132 -1 -69 -32 -257 -159 -429
-291 -409 -311 -745 -337 -1004 -77 -115 115 -186 271 -227 494 -24 131 -25
485 -1 664 80 607 264 1152 522 1544 89 135 264 312 390 395 98 65 227 121
345 151 59 15 110 19 240 19 229 -1 329 -27 615 -160 214 -99 426 -153 670
-171 55 -4 91 -10 80 -12 -10 -2 -81 1 -157 7 -117 10 -140 10 -152 -2 -12
-12 -9 -14 20 -15 19 -1 44 -6 55 -12 34 -19 386 -15 504 5 203 34 293 62 540
166 295 123 363 140 555 141 161 1 233 -11 363 -62 173 -68 243 -114 381 -248
182 -176 321 -419 468 -817 118 -321 192 -619 234 -950 20 -154 23 -454 5
-570 -16 -106 -66 -267 -103 -335 -17 -30 -36 -65 -43 -77 -15 -29 -93 -113
-104 -113 -5 0 -14 -7 -21 -15 -43 -52 -228 -112 -310 -100 -59 9 -139 35
-147 48 -3 5 -2 7 3 4 6 -3 51 -13 101 -21 83 -15 96 -15 154 0 204 52 330
191 404 448 41 145 50 218 49 436 -1 454 -114 943 -336 1460 -99 230 -267 485
-407 614 -172 160 -395 257 -630 272 -152 10 -371 -37 -549 -118 -232 -105
-381 -155 -576 -191 -174 -32 -468 -32 -645 1 -198 36 -231 47 -606 212 -81
36 -306 87 -263 60 10 -6 40 -14 68 -17 27 -3 50 -9 50 -13 0 -5 15 -8 34 -8
18 0 44 -7 57 -15 13 -8 37 -18 52 -21 16 -4 25 -11 21 -17 -4 -7 1 -9 14 -5
12 4 26 1 35 -9 9 -8 20 -15 26 -15 6 0 58 -23 115 -50 57 -28 113 -53 125
-55 31 -6 94 -28 107 -37 16 -11 224 -45 360 -58 173 -17 494 10 614 51 19 7
53 12 75 11 25 -2 35 1 27 6 -9 6 -6 12 13 20 14 7 34 12 45 12 10 0 22 5 25
10 4 6 14 10 23 9 31 -3 43 1 37 11 -4 6 6 8 25 6 23 -3 30 0 28 12 -2 10 5
18 17 20 22 3 37 9 104 41 24 11 48 18 53 15 5 -3 18 2 29 12 11 10 33 17 54
16 23 -1 38 4 41 13 4 9 20 15 41 15 22 0 32 4 27 11 -4 8 4 9 27 4 22 -4 29
-3 21 3 -10 7 -6 9 15 9 15 0 97 3 181 5 84 3 155 1 158 -3 3 -5 19 -9 35 -9
28 0 109 -21 154 -40 11 -5 30 -12 43 -15 15 -4 21 -12 18 -21 -4 -11 0 -13
19 -8 20 5 24 3 19 -10 -4 -12 0 -16 15 -16 11 0 28 -9 38 -19 10 -11 29 -21
43 -23 15 -2 24 -9 22 -17 -2 -8 3 -11 11 -8 18 7 79 -41 71 -55 -4 -6 -3 -8
3 -5 9 5 39 -19 70 -57 7 -8 10 -23 7 -33 -5 -14 -4 -15 4 -4 8 11 13 11 29
-5 32 -32 79 -99 63 -90 -9 4 -8 2 2 -7 10 -8 15 -16 13 -19 -3 -3 8 -20 24
-37 70 -75 108 -141 81 -141 -5 0 -10 -5 -10 -11 0 -6 6 -9 14 -6 17 7 36 -11
36 -33 0 -9 11 -31 25 -50 14 -19 25 -44 25 -57 0 -13 4 -23 9 -23 11 0 24
-37 25 -70 1 -15 7 -25 16 -25 11 0 15 -11 13 -45 -2 -33 0 -40 7 -25 8 19 9
19 9 -3 1 -13 5 -21 10 -18 5 3 16 -26 25 -65 9 -39 24 -83 34 -97 11 -15 22
-38 25 -52 3 -14 17 -58 31 -98 14 -41 26 -93 26 -117 0 -24 6 -50 14 -58 8
-8 17 -32 21 -53 9 -57 26 -126 36 -149 5 -11 13 -58 19 -105 13 -100 22 -167
40 -270 16 -98 7 -455 -14 -555 -20 -90 -30 -123 -49 -159 -9 -16 -14 -33 -11
-37 4 -8 -19 -57 -64 -135 -31 -54 -130 -141 -196 -173 -115 -56 -231 -52
-360 12 -107 53 -181 112 -352 282 -157 155 -211 204 -254 234 -19 13 -54 40
-77 61 -59 52 -213 141 -308 177 -111 43 -212 63 -317 63 -131 0 -289 -36
-261 -60 4 -3 35 -15 68 -25 33 -11 67 -24 75 -30 8 -6 27 -17 41 -24 14 -7
42 -28 63 -47 20 -19 41 -34 45 -34 4 0 18 -23 32 -51 46 -100 20 -226 -71
-328 -8 -9 -30 -35 -49 -56 -40 -47 -81 -76 -94 -68 -6 3 -7 1 -3 -5 7 -11
-115 -100 -209 -151 -33 -18 -64 -36 -70 -41 -5 -4 -41 -24 -80 -44 -38 -20
-77 -41 -85 -46 -93 -55 -122 -70 -134 -70 -8 0 -16 -3 -18 -7 -1 -5 -53 -33
-114 -63 -62 -30 -109 -59 -106 -64 3 -5 -2 -7 -11 -3 -10 3 -17 3 -17 -2 0
-4 -30 -23 -67 -42 -38 -19 -94 -51 -126 -72 -32 -20 -63 -35 -68 -31 -5 3 -9
1 -9 -3 0 -5 -25 -26 -56 -48 -62 -45 -97 -73 -135 -112 -17 -16 -31 -23 -39
-18 -8 5 -11 4 -6 -3 4 -6 -4 -18 -18 -27 -14 -9 -28 -24 -31 -33 -3 -10 -17
-30 -33 -47 -46 -50 -102 -132 -102 -149 0 -9 -4 -16 -10 -16 -5 0 -10 -8 -10
-17 0 -10 -7 -31 -16 -48 -27 -51 -43 -136 -44 -234 0 -178 55 -313 185 -446
81 -82 149 -135 176 -135 7 0 34 -12 58 -25 31 -18 68 -28 128 -34 46 -5 87
-11 90 -15 4 -3 0 -6 -9 -6 -8 0 -23 -9 -32 -19 -17 -18 -18 -64 -17 -678 0
-362 1 -661 1 -665 0 -5 9 -17 20 -28 17 -17 33 -20 114 -20 126 0 154 7 171
40 15 29 20 319 16 1017 l-1 301 -26 31 c-16 19 -35 31 -50 31 -14 0 -35 12
-51 30 -14 17 -32 30 -39 30 -7 0 -32 18 -56 40 -23 22 -48 40 -54 40 -10 0
-79 74 -125 135 -13 17 -26 32 -29 35 -12 12 -53 96 -70 144 -26 76 -33 163
-20 237 15 85 20 100 31 94 5 -4 9 3 9 13 0 47 109 175 215 253 33 24 62 46
65 50 3 3 20 11 38 18 17 8 32 18 32 24 0 6 3 8 6 4 3 -3 43 19 89 48 46 30
98 61 117 70 52 24 179 92 353 190 88 49 163 89 168 87 4 -1 7 3 7 8 0 6 7 10
15 10 8 0 15 4 15 10 0 5 4 9 8 7 8 -2 254 155 278 177 7 6 31 27 55 46 79 64
175 164 217 227 23 34 42 66 42 70 0 4 11 30 25 57 14 27 25 59 25 70 0 12 7
30 15 40 8 11 15 28 15 38 0 25 36 58 63 58 21 0 149 -77 172 -104 6 -6 26
-24 45 -39 73 -57 92 -74 168 -144 42 -40 80 -73 85 -73 4 0 15 -8 26 -19 59
-59 206 -151 276 -172 91 -28 185 -41 260 -36 104 7 114 10 183 47 99 52 197
147 253 242 22 37 43 70 48 73 5 3 12 23 16 45 4 22 11 42 16 46 5 3 9 17 9
31 0 14 6 39 14 56 67 151 73 643 11 952 -7 39 -16 92 -20 118 -3 26 -18 91
-32 145 -14 53 -30 120 -35 147 -5 28 -13 55 -17 60 -4 6 -16 39 -26 75 -10
36 -21 70 -25 75 -3 6 -12 30 -19 55 -60 209 -236 581 -365 770 -45 66 -256
274 -293 289 -18 7 -33 17 -33 20 0 9 -183 105 -241 126 -24 9 -86 27 -138 41
-159 41 -398 31 -573 -25 -98 -31 -287 -107 -302 -122 -6 -5 -17 -9 -25 -9 -9
0 -28 -6 -43 -14 -15 -8 -42 -17 -60 -21 -18 -4 -42 -13 -53 -20 -11 -7 -41
-16 -65 -20 -25 -4 -63 -14 -85 -23 -22 -8 -62 -14 -89 -13 -29 1 -52 -3 -56
-10 -14 -22 -276 -34 -424 -20 -141 14 -352 60 -391 85 -14 9 -33 16 -44 16
-10 0 -45 14 -76 30 -31 17 -61 30 -66 30 -6 0 -42 15 -82 34 -242 113 -473
152 -708 121z m-239 -199 c0 -2 -7 -7 -16 -10 -8 -3 -12 -2 -9 4 6 10 25 14
25 6z m1928 -143 c-10 -2 -26 -2 -35 0 -10 3 -2 5 17 5 19 0 27 -2 18 -5z
m376 -1420 c13 -21 27 -49 30 -63 4 -14 -5 -1 -19 28 -15 28 -31 52 -36 52 -5
0 -9 5 -9 10 0 18 9 11 34 -27z m43 -185 c-2 -18 -4 -4 -4 32 0 36 2 50 4 33
2 -18 2 -48 0 -65z m2260 -10 c-3 -8 -6 -5 -6 6 -1 11 2 17 5 13 3 -3 4 -12 1
-19z m10 -70 c-3 -7 -5 -2 -5 12 0 14 2 19 5 13 2 -7 2 -19 0 -25z m-2306 -41
c-10 -9 -11 -8 -5 6 3 10 9 15 12 12 3 -3 0 -11 -7 -18z m2316 -49 c-2 -13 -4
-5 -4 17 -1 22 1 32 4 23 2 -10 2 -28 0 -40z m-2417 -38 c0 -5 -4 -10 -10 -10
-5 0 -10 5 -10 10 0 6 5 10 10 10 6 0 10 -4 10 -10z m-830 -310 c0 -5 -2 -10
-4 -10 -3 0 -8 5 -11 10 -3 6 -1 10 4 10 6 0 11 -4 11 -10z m3267 -147 c-3
-10 -5 -4 -5 12 0 17 2 24 5 18 2 -7 2 -21 0 -30z m-20 -155 c-3 -8 -6 -5 -6
6 -1 11 2 17 5 13 3 -3 4 -12 1 -19z m-10 -50 c-3 -7 -5 -2 -5 12 0 14 2 19 5
13 2 -7 2 -19 0 -25z m-18 -72 c-6 -26 -13 -45 -16 -43 -2 3 1 26 8 51 6 26
13 45 16 43 2 -3 -1 -26 -8 -51z m-1962 22 c-3 -8 -6 -5 -6 6 -1 11 2 17 5 13
3 -3 4 -12 1 -19z m773 -63 c13 -14 21 -25 18 -25 -2 0 -15 11 -28 25 -13 14
-21 25 -18 25 2 0 15 -11 28 -25z m-827 -65 c-15 -24 -35 -53 -43 -65 -20 -30
-107 -115 -117 -115 -5 0 -23 -13 -41 -30 -18 -16 -38 -30 -43 -30 -6 0 -7 -5
-4 -10 4 -6 1 -9 -7 -8 -7 2 -12 -2 -11 -9 2 -8 -4 -10 -14 -6 -12 5 -14 3 -8
-7 5 -8 4 -11 -3 -6 -10 6 -103 -50 -110 -67 -2 -4 -7 -5 -12 -2 -4 3 -13 -2
-20 -10 -11 -13 -10 -14 5 -9 13 6 16 4 10 -5 -6 -10 -2 -11 16 -6 46 13 -29
-30 -341 -198 -286 -153 -420 -230 -524 -299 -104 -69 -127 -89 -108 -96 6 -2
12 -8 12 -14 0 -6 -6 -5 -15 2 -13 11 -21 10 -43 -7 -15 -12 -26 -28 -26 -36
1 -10 -4 -13 -14 -10 -20 8 -73 -53 -65 -75 3 -11 2 -13 -4 -5 -6 8 -13 9 -23
2 -13 -7 -13 -10 -1 -18 8 -5 9 -11 3 -15 -6 -3 -12 0 -15 6 -2 7 -6 11 -8 8
-112 -141 -169 -289 -168 -440 0 -79 18 -159 53 -236 14 -31 24 -59 21 -62 -3
-3 -5 1 -5 9 -1 10 -3 10 -10 -3 -12 -20 -2 -51 13 -41 6 4 7 1 2 -6 -5 -8 22
-41 76 -94 46 -45 69 -71 51 -58 -146 104 -251 288 -268 470 -11 120 40 305
116 416 140 207 327 343 835 608 208 108 291 152 465 249 75 41 242 168 298
225 32 33 71 81 87 106 16 25 31 44 33 42 2 -2 -9 -22 -25 -45z m728 3 c13
-16 12 -17 -3 -4 -10 7 -18 15 -18 17 0 8 8 3 21 -13z m1250 -10 c-12 -20 -14
-14 -5 12 4 9 9 14 11 11 3 -2 0 -13 -6 -23z m-1118 -110 c14 -23 2 -14 -43
34 l-45 47 40 -34 c22 -18 44 -39 48 -47z m118 30 c13 -16 12 -17 -3 -4 -10 7
-18 15 -18 17 0 8 8 3 21 -13z m952 -18 c-3 -9 -8 -14 -10 -11 -3 3 -2 9 2 15
9 16 15 13 8 -4z m-1653 -34 c0 -5 -9 -19 -20 -32 l-20 -24 17 32 c19 34 23
39 23 24z m645 -22 c56 -50 110 -91 141 -105 19 -9 34 -21 34 -26 0 -5 5 -6
10 -3 6 3 10 1 10 -5 0 -13 148 -84 198 -95 18 -4 31 -9 28 -12 -8 -8 -108 25
-171 57 -87 46 -191 118 -249 173 -47 45 -47 57 -1 16z m963 -19 c-7 -10 -14
-17 -17 -15 -4 4 18 35 25 35 2 0 -1 -9 -8 -20z m-1688 -74 c0 -2 -8 -10 -17
-17 -16 -13 -17 -12 -4 4 13 16 21 21 21 13z m1015 -16 c17 -11 26 -20 20 -20
-5 0 -23 9 -40 20 -16 11 -25 20 -20 20 6 0 24 -9 40 -20z m565 -23 c0 -2 -10
-12 -22 -23 l-23 -19 19 23 c18 21 26 27 26 19z m-1640 -21 c0 -2 -8 -10 -17
-17 -16 -13 -17 -12 -4 4 13 16 21 21 21 13z m-61 -59 c-2 -1 -15 -11 -29 -22
l-25 -20 19 23 c11 12 24 22 29 22 6 0 8 -1 6 -3z m-65 -46 c3 -5 -1 -11 -9
-14 -9 -4 -12 -1 -8 9 6 16 10 17 17 5z m-34 -26 c0 -2 -10 -9 -22 -15 -22
-11 -22 -10 -4 4 21 17 26 19 26 11z m-100 -71 c0 -1 -12 -10 -27 -20 -20 -13
-25 -13 -16 -2 7 8 11 17 8 19 -2 3 5 5 15 5 11 0 20 -1 20 -2z m-65 -43 c-11
-11 -214 -128 -322 -186 -40 -21 -69 -43 -66 -48 3 -6 1 -7 -5 -3 -14 8 -406
-209 -557 -309 -237 -156 -333 -311 -323 -514 6 -111 41 -209 107 -306 28 -40
51 -77 51 -81 0 -4 -18 18 -41 49 -22 32 -44 57 -50 57 -5 0 -8 5 -7 11 2 6
-3 14 -11 16 -10 4 -11 -1 -6 -18 9 -28 3 -24 -15 10 -6 13 -8 21 -2 17 17
-10 22 22 7 38 -8 8 -15 22 -15 31 0 9 -5 13 -11 9 -6 -3 -9 -15 -6 -25 9 -32
-1 -21 -21 24 -62 142 -49 364 29 470 11 16 18 35 15 43 -3 8 -2 13 3 9 5 -3
38 23 73 58 92 92 202 170 354 252 72 39 148 80 224 123 25 14 77 41 115 62
39 20 95 51 126 69 52 29 98 34 83 9 -4 -7 -9 -6 -14 1 -4 8 -14 6 -31 -7 -13
-11 -31 -17 -39 -14 -12 4 -12 1 2 -13 17 -18 43 -12 32 7 -5 8 -1 9 10 5 11
-5 15 -3 10 4 -4 7 -1 10 7 7 20 -7 51 11 43 24 -4 6 -3 8 4 5 5 -4 21 -3 34
2 13 6 16 10 8 11 -13 0 -13 2 -1 9 8 5 21 7 29 3 9 -3 13 -1 9 5 -4 6 1 10
11 9 9 0 16 5 14 12 -1 8 2 10 8 7 6 -4 29 5 51 19 21 15 39 24 39 21 0 -4 10
1 22 9 25 18 37 21 23 7z m-113 -18 c-6 -2 -10 -8 -8 -12 3 -4 0 -8 -7 -8 -23
-1 -107 -49 -100 -58 5 -4 1 -6 -8 -2 -9 3 -22 1 -28 -4 -7 -6 -8 -5 -2 2 12
15 142 87 156 87 6 0 4 -2 -3 -5z m-1144 -500 c-5 -26 -38 -29 -38 -4 0 15 6
21 21 21 14 0 19 -5 17 -17z m-81 -88 c-4 -8 -12 -15 -19 -14 -10 0 -10 2 0 6
6 2 12 12 12 21 0 8 3 13 6 9 4 -3 4 -13 1 -22z m442 -1018 c22 -15 21 -15
-40 -14 -35 0 -50 2 -34 5 44 5 51 18 19 35 -16 8 -38 25 -49 37 -13 16 -4 12
30 -12 28 -19 61 -42 74 -51z m-284 33 c3 -6 -1 -7 -9 -4 -18 7 -21 14 -7 14
6 0 13 -4 16 -10z m142 -36 c-3 -3 -12 -4 -19 -1 -8 3 -5 6 6 6 11 1 17 -2 13
-5z m260 -67 l28 -28 -3 -612 c-1 -336 -2 -627 -2 -645 0 -23 -8 -40 -26 -57
-24 -23 -35 -25 -116 -25 -86 0 -91 1 -119 29 l-29 29 0 647 0 646 25 25 c25
25 30 26 120 22 88 -3 97 -5 122 -31z"/>
<path d="M5465 5190 c4 -6 -1 -7 -11 -3 -13 5 -16 3 -11 -10 8 -21 -4 -29 -23
-15 -12 8 -11 8 5 3 16 -5 18 -4 8 6 -9 9 -16 10 -23 3 -8 -8 -6 -15 4 -23 12
-10 22 -8 51 12 29 19 33 26 20 31 -23 8 -27 8 -20 -4z"/>
<path d="M5375 5140 c17 -7 17 -9 3 -9 -30 -2 -100 -33 -91 -42 5 -5 19 -6 32
-2 17 4 20 8 9 15 -9 7 -7 8 10 5 12 -3 20 -2 17 3 -2 4 9 10 26 14 34 6 31
26 -4 25 -21 0 -21 -1 -2 -9z"/>
<path d="M5251 5071 c-10 -6 -9 -10 3 -14 8 -3 18 -2 21 3 8 13 -9 20 -24 11z"/>
<path d="M4188 3763 c6 -2 12 -11 12 -19 0 -8 5 -14 11 -14 6 0 9 -7 5 -15 -8
-23 2 -18 15 8 6 12 8 19 4 15 -5 -5 -14 1 -22 12 -8 11 -20 20 -26 19 -9 0
-9 -2 1 -6z"/>
<path d="M5360 4840 c0 -5 5 -10 11 -10 5 0 7 5 4 10 -3 6 -8 10 -11 10 -2 0
-4 -4 -4 -10z"/>
<path d="M4441 3835 c1 -19 18 -51 18 -35 0 8 -4 22 -9 30 -5 8 -9 11 -9 5z"/>
<path d="M4450 4499 c0 -5 5 -7 10 -4 6 3 10 8 10 11 0 2 -4 4 -10 4 -5 0 -10
-5 -10 -11z"/>
<path d="M4790 3301 l-35 -6 -5 -613 c-3 -337 -2 -623 1 -637 6 -19 3 -23 -12
-22 -22 1 -25 13 -6 20 10 4 10 7 0 18 -7 7 -13 37 -13 65 0 29 -3 55 -8 57
-6 4 -7 -42 -3 -166 1 -10 6 -15 11 -12 6 3 10 0 10 -8 0 -18 52 -29 62 -14 6
9 8 9 8 0 0 -19 96 -16 130 4 34 20 40 46 39 162 l-1 86 -10 -55 c-5 -30 -7
-68 -5 -83 2 -16 0 -24 -5 -19 -15 15 -27 399 -28 825 l0 387 -26 10 c-27 11
-49 11 -104 1z"/>
<path d="M4703 2280 c0 -25 2 -35 4 -22 2 12 2 32 0 45 -2 12 -4 2 -4 -23z"/>
<path d="M4941 2174 c0 -11 3 -14 6 -6 3 7 2 16 -1 19 -3 4 -6 -2 -5 -13z"/>
<path d="M4732 2105 c0 -16 2 -22 5 -12 2 9 2 23 0 30 -3 6 -5 -1 -5 -18z"/>
<path d="M4681 8240 c7 -4 32 -10 54 -14 35 -5 37 -4 15 5 -29 13 -92 21 -69
9z"/>
<path d="M6424 7816 c-135 -63 -176 -234 -87 -364 43 -64 92 -90 180 -99 54
-5 69 -2 116 21 123 60 173 163 142 293 -12 50 -22 69 -57 102 -76 72 -198 92
-294 47z"/>
<path d="M3555 7803 c-11 -3 -32 -17 -47 -31 -27 -25 -28 -28 -29 -146 -1
-145 -11 -225 -30 -237 -8 -5 -66 -9 -130 -9 -160 0 -216 -12 -250 -53 -27
-32 -28 -34 -26 -160 l2 -129 37 -34 c21 -19 46 -34 55 -35 10 0 84 -1 165 -2
105 -1 151 -6 160 -15 9 -9 14 -62 18 -180 5 -174 12 -201 52 -223 38 -21 197
-24 260 -5 80 23 87 43 90 236 2 99 7 158 14 169 11 14 38 16 179 18 171 2
172 2 228 46 15 12 17 33 17 155 0 132 -1 143 -22 166 -28 32 -111 46 -278 46
-104 0 -116 2 -128 20 -8 13 -14 75 -17 171 -5 176 -17 207 -83 227 -38 12
-196 15 -237 5z m230 -17 c61 -26 69 -51 75 -227 7 -212 -7 -199 211 -199
l168 0 35 -34 36 -33 0 -123 0 -122 -34 -34 -34 -34 -176 0 c-163 0 -176 -1
-186 -19 -5 -11 -10 -85 -10 -170 0 -82 -4 -161 -10 -175 -19 -50 -63 -66
-183 -66 -119 0 -155 11 -175 55 -8 16 -12 81 -12 178 0 119 -3 157 -15 174
-14 20 -25 22 -184 25 l-170 3 -30 29 -31 30 0 125 0 125 32 33 32 33 154 0
c137 0 178 5 202 27 3 3 7 83 10 180 l5 175 30 24 c35 28 48 31 148 33 47 0
91 -5 112 -13z"/>
<path d="M6000 7376 c-59 -21 -102 -53 -132 -97 -33 -50 -42 -92 -35 -168 11
-124 80 -192 219 -215 62 -11 143 19 198 73 54 51 70 94 70 181 0 64 -40 153
-80 179 -14 8 -27 18 -30 21 -3 3 -25 14 -50 23 -54 20 -111 21 -160 3z"/>
<path d="M6916 7375 c-54 -15 -84 -39 -129 -105 -29 -41 -32 -53 -34 -129 -3
-96 8 -122 71 -180 57 -53 82 -63 162 -66 64 -2 78 1 122 26 154 88 184 289
60 406 -64 61 -147 77 -252 48z"/>
<path d="M6455 6934 c-10 -8 -26 -14 -34 -14 -32 -1 -92 -71 -125 -147 -33
-74 -7 -178 61 -251 42 -45 92 -67 169 -76 93 -11 210 68 242 163 15 43 15
124 1 175 -14 50 -96 132 -147 145 -64 18 -147 20 -167 5z"/>
<path d="M5440 6335 c-7 -9 -11 -17 -9 -20 3 -2 10 5 17 15 14 24 10 26 -8 5z"/>
<path d="M4486 5914 c-5 -14 -4 -15 9 -4 17 14 19 20 6 20 -5 0 -12 -7 -15
-16z"/>
<path d="M4628 5693 c-12 -13 -21 -36 -21 -54 0 -65 30 -69 538 -69 392 0 443
2 465 16 53 35 65 77 32 107 -16 15 -72 17 -506 19 l-487 3 -21 -22z m1015
-14 c17 -27 0 -65 -35 -80 -50 -21 -932 -15 -965 6 -25 17 -31 63 -11 83 9 9
130 12 507 10 439 -3 495 -5 504 -19z"/>
<path d="M4748 5164 c32 -16 43 -34 20 -34 -6 0 -9 -2 -6 -5 6 -7 38 5 38 14
0 8 -59 41 -73 41 -7 0 3 -8 21 -16z"/>
<path d="M4670 5070 c0 -5 4 -10 9 -10 6 0 13 5 16 10 3 6 -1 10 -9 10 -9 0
-16 -4 -16 -10z"/>
<path d="M4628 5053 c7 -3 16 -2 19 1 4 3 -2 6 -13 5 -11 0 -14 -3 -6 -6z"/>
<path d="M5585 4730 c-11 -4 -49 -26 -85 -49 -36 -23 -79 -49 -97 -58 -18 -9
-30 -20 -27 -24 2 -4 -12 -13 -31 -19 -19 -6 -37 -16 -41 -21 -10 -16 24 -45
79 -69 62 -27 207 -127 215 -149 3 -9 11 -20 19 -24 12 -8 31 -44 67 -131 29
-69 16 -171 -35 -279 -41 -88 -66 -124 -111 -166 -16 -14 -28 -29 -28 -34 0
-10 -16 -26 -203 -201 -65 -60 -117 -116 -117 -123 0 -8 -6 -16 -14 -19 -33
-13 -56 -81 -56 -165 0 -69 4 -88 31 -142 17 -34 40 -72 52 -84 11 -13 16 -23
12 -23 -5 0 1 -7 13 -16 12 -8 19 -20 16 -26 -4 -6 -3 -8 3 -5 5 3 38 -26 74
-65 35 -38 81 -86 102 -106 20 -19 37 -40 37 -45 0 -5 11 -22 25 -39 14 -17
25 -42 25 -59 0 -29 -38 -105 -70 -140 -8 -9 -28 -34 -45 -54 -29 -37 -164
-190 -235 -268 -19 -21 -40 -48 -47 -60 -7 -12 -13 -17 -13 -12 -1 6 -6 -1
-11 -14 -6 -16 -6 -35 1 -56 10 -31 13 -32 63 -33 l52 0 -40 9 c-22 5 -44 14
-49 19 -13 13 -18 48 -8 54 5 3 8 -7 8 -22 -1 -25 3 -28 49 -34 28 -3 84 -7
125 -9 l75 -3 -80 -6 -80 -6 112 -2 c61 -1 122 2 135 7 30 12 188 168 188 186
0 3 14 18 30 32 17 13 30 30 30 36 0 19 74 77 108 83 18 4 46 1 63 -6 28 -12
89 -62 89 -73 0 -4 11 -18 24 -32 28 -30 62 -136 70 -216 11 -107 -49 -254
-139 -344 -55 -55 -161 -127 -190 -129 -13 0 -21 -4 -19 -7 2 -4 -21 -17 -51
-30 -30 -13 -55 -27 -55 -31 0 -13 81 -9 155 8 39 9 89 19 112 23 23 4 57 20
77 34 19 15 38 27 41 27 25 0 149 107 191 165 16 22 31 42 34 45 3 3 21 34 39
70 34 64 35 67 35 195 0 123 -2 134 -32 209 -17 43 -38 86 -45 95 -8 9 -30 45
-49 81 -20 36 -46 84 -59 107 -24 42 -24 43 -6 76 17 31 45 70 81 110 9 9 17
20 18 25 1 4 5 12 10 17 41 52 138 187 138 193 0 4 26 36 58 71 l57 63 74 9
c73 9 90 4 91 -23 0 -4 -45 -52 -100 -106 l-101 -100 3 -412 3 -412 28 -24 29
-25 361 2 c199 0 371 5 382 10 43 19 134 75 162 99 16 15 45 57 64 95 33 68
34 73 34 195 0 115 -2 128 -25 169 -14 24 -31 55 -38 68 -8 13 -31 37 -53 51
-42 30 -49 51 -21 68 10 6 33 41 51 78 56 109 60 293 9 366 -10 13 -18 29 -18
35 0 26 -96 118 -153 145 -93 46 -144 51 -502 50 -408 0 -428 -3 -498 -76 -28
-29 -54 -51 -58 -49 -4 3 -6 -1 -5 -8 1 -13 -9 -29 -72 -113 -18 -25 -32 -50
-30 -56 2 -6 36 34 76 89 99 140 145 178 230 193 37 6 94 10 127 8 l60 -4 -72
-2 c-80 -2 -173 -21 -173 -34 0 -5 -4 -6 -10 -3 -12 8 -80 -62 -130 -136 -42
-62 -48 -75 -27 -63 8 5 8 3 -2 -9 -7 -9 -17 -14 -22 -11 -11 7 -11 -7 0 -24
6 -11 10 -10 15 4 3 9 9 14 13 11 3 -4 -12 -29 -33 -57 -40 -52 -52 -63 -35
-32 11 21 11 63 -1 56 -4 -3 -4 -12 -1 -21 4 -11 2 -14 -5 -9 -7 4 -23 -9 -39
-34 -16 -23 -41 -58 -58 -78 -22 -26 -25 -34 -12 -29 11 4 16 3 12 -3 -3 -6
-12 -10 -18 -10 -7 -1 -25 -18 -42 -40 -48 -61 -159 -81 -190 -33 -8 12 -24
21 -34 20 -21 -1 -18 -12 2 -12 7 0 13 -9 15 -20 3 -13 -19 3 -64 47 -37 38
-65 71 -61 74 3 4 25 -13 48 -37 23 -24 35 -35 28 -24 -44 62 -59 76 -78 70
-24 -7 -56 29 -46 52 6 15 8 15 12 3 14 -44 13 -44 26 -26 11 14 22 7 97 -69
142 -142 171 -132 354 123 27 37 36 56 28 64 -7 7 -15 1 -26 -21 -19 -36 -46
-75 -101 -149 -26 -35 -45 -50 -54 -47 -9 3 -12 3 -8 -1 10 -10 -43 -44 -70
-44 -15 0 -61 39 -142 120 -108 108 -120 123 -126 164 -4 24 -4 53 0 65 12 39
111 145 126 135 5 -3 9 -2 8 3 -4 17 16 49 53 87 21 21 38 42 38 45 0 4 11 14
25 21 14 7 25 19 25 25 0 6 11 22 25 35 13 12 22 27 19 31 -3 5 -1 9 5 9 6 0
25 22 43 49 17 28 34 49 37 48 3 -1 7 2 8 7 1 5 5 12 10 15 4 3 18 27 31 54
14 27 28 44 34 41 6 -4 8 -3 5 3 -3 5 6 43 21 84 24 68 27 87 27 219 0 135 -2
150 -28 217 -16 40 -36 82 -46 95 -10 13 -21 32 -25 43 -3 11 -19 34 -34 51
-16 17 -37 42 -48 55 -10 13 -29 31 -40 39 -12 8 -52 41 -90 73 -95 81 -141
103 -179 87z m96 -48 c258 -173 388 -382 389 -623 0 -112 -86 -365 -112 -328
-7 10 -8 8 -3 -7 8 -30 -106 -177 -309 -396 -78 -85 -81 -87 -101 -70 -20 17
-20 17 -1 -6 19 -22 19 -22 -4 -47 -17 -18 -25 -40 -28 -77 -4 -50 -2 -56 37
-105 29 -35 38 -54 30 -59 -7 -4 -9 -3 -6 3 4 6 1 16 -7 22 -10 9 -16 7 -26
-4 -12 -14 -16 -13 -36 12 -13 15 -23 36 -24 45 0 9 -5 18 -12 20 -6 2 -12 25
-12 54 0 40 6 59 32 97 17 27 32 50 32 52 0 3 13 17 28 32 129 128 313 359
381 480 100 178 108 360 24 527 -59 117 -143 216 -249 292 -88 63 -100 66
-154 36 -25 -14 -61 -34 -80 -45 -19 -10 -38 -22 -42 -26 -4 -4 31 -29 78 -56
112 -65 202 -159 235 -247 20 -53 24 -81 24 -178 -1 -107 -3 -120 -32 -185
-17 -38 -57 -105 -88 -147 -57 -77 -221 -243 -284 -287 l-34 -24 18 26 c16 25
16 27 1 27 -11 0 -14 -5 -10 -12 5 -7 2 -9 -9 -5 -12 5 -15 0 -13 -21 2 -20
-9 -39 -40 -73 -67 -73 -86 -119 -82 -199 2 -38 5 -66 7 -64 2 2 13 -15 23
-38 11 -23 22 -45 26 -48 4 -3 25 -27 47 -55 22 -27 59 -71 83 -97 24 -26 41
-52 38 -57 -9 -14 32 -53 46 -45 7 4 8 3 4 -5 -4 -6 -12 -9 -17 -6 -16 10 -10
-10 9 -26 27 -25 53 -59 44 -59 -12 0 -242 245 -280 298 -88 124 -110 241 -63
333 32 63 91 129 120 134 13 2 26 7 30 11 3 4 -2 4 -12 1 -27 -10 -18 3 41 57
49 46 54 48 70 33 12 -13 13 -17 2 -17 -7 0 -11 -2 -8 -5 8 -8 38 6 38 18 0 6
-3 7 -7 4 -3 -4 -12 -2 -20 4 -10 9 4 29 72 101 189 198 259 362 221 515 -20
78 -37 114 -81 169 -46 56 -125 114 -228 166 l-88 45 88 51 c48 28 111 67 138
86 28 19 59 35 70 35 11 1 45 -16 76 -37z m1361 -1643 c15 -8 35 -31 44 -52
15 -32 15 -43 5 -78 -7 -23 -24 -52 -38 -65 -25 -23 -32 -24 -173 -24 -126 0
-149 2 -154 16 -12 30 -7 199 7 213 17 18 270 9 309 -10z m-652 -33 c0 -2 -7
-9 -15 -16 -13 -11 -14 -10 -9 4 5 14 24 23 24 12z m-69 -24 c-5 -10 -18 -25
-27 -33 -11 -9 -9 -2 6 19 26 35 36 42 21 14z m-22 -102 c-28 -38 -53 -70 -56
-70 -2 0 18 31 44 70 26 38 51 70 55 70 4 0 -15 -31 -43 -70z m-277 12 c-24
-32 -52 -58 -52 -47 0 4 8 15 18 24 11 9 24 27 31 39 7 13 15 21 18 18 3 -2
-4 -18 -15 -34z m-571 -89 c13 -16 12 -17 -3 -4 -10 7 -18 15 -18 17 0 8 8 3
21 -13z m499 3 c0 -2 -8 -10 -17 -17 -16 -13 -17 -12 -4 4 13 16 21 21 21 13z
m233 -11 c-3 -9 -8 -14 -10 -11 -3 3 -2 9 2 15 9 16 15 13 8 -4z m57 1 c0 -2
-8 -10 -17 -17 -16 -13 -17 -12 -4 4 13 16 21 21 21 13z m-485 -26 c3 -5 -1
-10 -9 -10 -9 0 -16 5 -16 10 0 6 4 10 9 10 6 0 13 -4 16 -10z m-251 -29 c14
-15 15 -21 4 -27 -7 -4 -10 -4 -6 1 4 4 -2 16 -14 26 -11 11 -17 19 -11 19 5
0 18 -9 27 -19z m706 15 c0 -2 -8 -10 -17 -17 -16 -13 -17 -12 -4 4 13 16 21
21 21 13z m-67 -80 c-10 -13 -20 -22 -22 -20 -4 4 29 44 36 44 2 0 -4 -11 -14
-24z m-583 -24 c0 -13 -3 -12 -15 4 -19 25 -19 40 0 24 8 -7 15 -20 15 -28z
m-20 -78 c0 -27 -7 -49 -20 -64 -21 -24 -27 -46 -10 -35 6 3 7 -1 4 -10 -5
-12 -10 -13 -20 -4 -11 9 -10 16 8 42 23 33 29 86 16 142 l-7 30 14 -30 c8
-16 14 -48 15 -71z m560 36 c-12 -16 -24 -30 -26 -30 -7 0 5 20 24 43 24 27
25 20 2 -13z m-529 -39 c7 11 9 11 8 -1 -1 -8 -5 -26 -9 -40 -7 -23 -8 -23 -9
-3 -1 12 -3 27 -4 35 -2 7 -2 9 1 4 2 -4 8 -2 13 5z m496 -63 c-3 -8 -6 -5 -6
6 -1 11 2 17 5 13 3 -3 4 -12 1 -19z m1023 -12 c63 -33 70 -44 70 -106 0 -104
-58 -132 -277 -129 -75 0 -142 3 -148 5 -16 6 -20 221 -5 239 9 11 45 14 168
12 132 -2 163 -5 192 -21z m-1620 -51 c-16 -19 -3 -40 16 -24 23 19 16 0 -8
-24 -13 -12 -20 -18 -15 -13 14 18 7 29 -10 15 -9 -8 -19 -13 -22 -12 -3 1 -5
-5 -5 -12 1 -8 -2 -13 -6 -10 -11 7 -52 -40 -43 -49 5 -4 1 -6 -7 -4 -8 2 -14
-3 -12 -10 1 -8 -1 -11 -6 -8 -4 3 -20 -14 -35 -37 -15 -22 -27 -38 -27 -34 0
4 -15 -9 -32 -30 -18 -21 -37 -41 -42 -44 -5 -4 -5 -12 -2 -18 4 -6 3 -10 -2
-9 -6 2 -27 -15 -48 -37 -77 -83 -11 5 86 115 56 63 129 148 162 188 34 39 63
72 66 72 2 0 -1 -7 -8 -15z m641 -22 c38 -61 42 -69 19 -43 -22 27 -53 80 -46
80 2 0 15 -17 27 -37z m-688 -98 c-3 -9 -8 -14 -10 -11 -3 3 -2 9 2 15 9 16
15 13 8 -4z m-33 -39 c0 -2 -7 -9 -15 -16 -13 -11 -14 -10 -9 4 5 14 24 23 24
12z m310 -40 c0 -2 -8 -10 -17 -17 -16 -13 -17 -12 -4 4 13 16 21 21 21 13z
m-45 -46 c28 23 15 4 -17 -26 -18 -16 -26 -21 -19 -11 11 14 11 20 0 35 -13
15 -12 16 4 3 14 -11 20 -11 32 -1z m-79 -98 l-29 -27 23 32 c13 18 26 30 29
28 3 -3 -8 -18 -23 -33z m-36 -36 c0 -2 -8 -10 -17 -17 -16 -13 -17 -12 -4 4
13 16 21 21 21 13z m-96 -86 c-5 -5 -25 -12 -44 -15 -35 -5 -35 -5 5 9 51 18
51 18 39 6z"/>
<path d="M5707 3446 c-10 -8 -14 -16 -10 -19 5 -3 14 3 21 14 14 22 13 23 -11
5z"/>
<path d="M5290 3419 c0 -5 5 -7 10 -4 6 3 10 8 10 11 0 2 -4 4 -10 4 -5 0 -10
-5 -10 -11z"/>
<path d="M5256 3383 c-6 -14 -5 -15 5 -6 7 7 10 15 7 18 -3 3 -9 -2 -12 -12z"/>
<path d="M5660 3390 c-9 -6 -10 -10 -3 -10 6 0 15 5 18 10 8 12 4 12 -15 0z"/>
<path d="M5631 3347 c-13 -21 -12 -21 5 -5 10 10 16 20 13 22 -3 3 -11 -5 -18
-17z"/>
<path d="M5183 3315 c-3 -9 -3 -18 -1 -21 3 -3 8 4 11 16 6 23 -1 27 -10 5z"/>
<path d="M5567 3293 c-10 -9 -9 -33 1 -33 4 0 8 9 8 20 0 23 0 22 -9 13z"/>
<path d="M5150 3221 c0 -6 4 -13 10 -16 6 -3 7 1 4 9 -7 18 -14 21 -14 7z"/>
<path d="M5491 3164 c0 -11 3 -14 6 -6 3 7 2 16 -1 19 -3 4 -6 -2 -5 -13z"/>
<path d="M5190 3081 c0 -5 5 -13 10 -16 6 -3 10 -2 10 4 0 5 -4 13 -10 16 -5
3 -10 2 -10 -4z"/>
<path d="M5492 3060 c0 -14 2 -19 5 -12 2 6 2 18 0 25 -3 6 -5 1 -5 -13z"/>
<path d="M5215 3030 c-4 -6 -4 -14 -1 -17 3 -4 6 -1 6 6 0 7 14 -3 31 -21 17
-18 27 -24 21 -13 -16 32 -49 58 -57 45z"/>
<path d="M5520 3001 c0 -25 6 -27 13 -6 4 8 2 17 -3 20 -6 4 -10 -3 -10 -14z"/>
<path d="M5287 2924 c34 -43 51 -60 68 -66 6 -1 9 -9 8 -16 0 -7 5 -11 12 -8
7 2 12 -2 11 -11 0 -9 4 -18 10 -20 7 -2 11 4 10 14 -1 19 -39 55 -68 66 -10
3 -18 12 -18 18 0 8 6 7 18 -2 16 -13 16 -13 2 6 -32 42 -50 59 -50 46 0 -11
-3 -11 -17 0 -10 8 -3 -4 14 -27z m23 1 c7 -9 8 -15 2 -15 -5 0 -12 7 -16 15
-3 8 -4 15 -2 15 2 0 9 -7 16 -15z"/>
<path d="M5380 4220 l-85 -6 117 -2 c132 -2 151 -11 146 -66 -5 -56 -11 -56
-460 -54 -394 3 -408 4 -422 23 -19 25 -20 46 -2 71 13 17 32 19 233 24 l218
6 -213 2 -213 2 -24 -25 c-30 -29 -31 -51 -5 -85 l19 -25 425 -3 424 -3 21 30
c27 37 26 50 -1 87 -26 33 -38 34 -178 24z"/>
<path d="M5168 4213 c23 -2 59 -2 80 0 20 2 1 4 -43 4 -44 0 -61 -2 -37 -4z"/>
<path d="M7798 3390 c-78 -10 -118 -28 -130 -59 -13 -37 -11 -1299 3 -1339 12
-35 33 -41 154 -43 97 -2 123 5 136 37 5 15 9 301 10 685 0 730 4 690 -62 704
-16 4 -31 11 -34 16 -4 5 -9 8 -13 8 -4 -1 -33 -5 -64 -9z"/>
<path d="M9125 3390 c-4 -6 -184 -10 -475 -10 -540 0 -523 3 -534 -81 -11 -78
4 -188 29 -217 21 -24 23 -25 173 -23 126 1 157 -2 178 -15 l25 -17 -1 -512
c-2 -542 -2 -543 44 -562 12 -5 69 -7 127 -4 165 9 149 -53 149 562 l0 519 23
14 c16 11 59 15 171 16 81 0 156 5 166 10 33 17 50 83 44 162 -3 40 -11 85
-17 99 -12 29 -92 75 -102 59z"/>
<path d="M1345 3383 c-45 -9 -73 -26 -86 -51 -11 -22 -14 -141 -14 -657 0
-590 1 -633 18 -672 10 -23 27 -45 38 -48 11 -4 66 -7 121 -7 98 -1 102 0 125
26 23 27 23 31 23 248 0 190 2 224 17 249 l17 29 199 0 c172 0 201 -2 215 -17
15 -14 18 -49 22 -256 6 -294 -4 -277 161 -277 99 0 110 2 129 22 11 13 23 32
26 43 8 34 -1 1308 -9 1327 -26 53 -221 63 -282 14 l-28 -23 -1 -254 -1 -254
-216 -3 c-186 -2 -218 0 -229 13 -10 12 -14 76 -16 250 -3 256 -8 276 -62 290
-33 8 -140 13 -167 8z m182 -37 l28 -24 5 -244 c3 -133 9 -249 13 -255 11 -18
448 -18 465 -1 9 9 12 77 12 243 0 126 3 239 6 251 10 38 54 54 147 54 75 0
87 -3 111 -25 l26 -24 0 -662 c0 -573 -2 -660 -14 -656 -10 4 -13 1 -9 -8 8
-22 -38 -35 -128 -35 -76 0 -82 2 -110 29 l-29 29 0 236 c0 200 -2 237 -16
250 -13 14 -48 16 -228 16 -191 0 -215 -2 -229 -18 -13 -15 -16 -54 -19 -256
l-3 -238 -28 -24 c-25 -22 -37 -24 -118 -24 -87 0 -92 1 -120 29 l-29 29 0
642 c0 548 2 645 15 670 18 35 27 37 137 39 78 1 90 -1 115 -23z"/>
<path d="M2271 3090 c-1 -63 -6 -137 -11 -165 l-7 -50 -3 45 -3 45 -7 -35
c-11 -57 -22 -80 -36 -80 -8 0 -14 7 -14 15 0 8 -6 15 -14 15 -8 0 -17 12 -19
28 -2 16 -5 7 -6 -22 -3 -99 -16 -30 -22 112 l-5 147 -2 -150 c-1 -82 -7 -167
-13 -188 -18 -64 -26 -66 -296 -67 -139 -1 -250 3 -260 8 -10 6 -27 20 -38 32
-18 20 -21 41 -26 219 -5 190 -5 192 -7 56 -3 -170 -11 -247 -26 -242 -6 2
-12 18 -14 35 -4 35 -13 40 -36 17 -22 -22 -35 -18 -41 13 -4 15 -9 36 -12 47
-3 11 -8 56 -12 100 -5 53 -8 -31 -10 -250 -1 -181 -4 -418 -7 -525 -3 -126
-2 -200 5 -210 7 -10 30 -15 73 -16 101 -2 98 -12 98 267 l0 237 31 26 31 26
241 0 c133 0 247 -4 252 -8 6 -4 21 -20 33 -36 21 -28 22 -37 22 -247 0 -120
4 -229 10 -243 9 -25 14 -26 79 -26 57 0 72 3 78 18 4 9 6 276 3 592 -3 316
-7 523 -9 460z"/>
<path d="M1454 2875 c-3 -8 -4 -20 -2 -27 3 -7 7 -1 10 15 6 29 1 36 -8 12z"/>
<path d="M2090 2030 c0 -5 5 -10 11 -10 5 0 7 5 4 10 -3 6 -8 10 -11 10 -2 0
-4 -4 -4 -10z"/>
<path d="M2268 2003 c13 -3 19 -9 16 -15 -4 -7 -2 -8 5 -4 17 11 3 26 -22 25
-22 -2 -22 -2 1 -6z"/>
<path d="M3715 3376 c-25 -7 -44 -21 -52 -36 -18 -36 -18 -1159 0 -1210 20
-59 73 -117 135 -147 l57 -28 304 -3 c325 -3 349 0 370 44 14 31 14 156 1 204
-16 56 -35 60 -291 60 -223 0 -228 1 -243 22 -13 18 -15 90 -16 519 0 274 -3
511 -6 526 -9 42 -59 63 -147 62 -40 0 -90 -6 -112 -13z m226 -35 l29 -29 0
-512 c0 -333 4 -518 10 -531 10 -18 23 -19 234 -19 230 0 278 -7 296 -40 11
-20 14 -179 4 -205 -16 -40 -51 -45 -325 -45 -208 0 -274 3 -318 16 -67 18
-123 55 -165 107 l-31 39 -8 521 c-4 287 -6 557 -4 599 5 114 21 126 160 127
85 1 90 0 118 -28z"/>
<path d="M3735 3290 c-3 -5 -2 -10 4 -10 5 0 13 5 16 10 3 6 2 10 -4 10 -5 0
-13 -4 -16 -10z"/>
<path d="M3729 2735 c-3 -297 -1 -555 4 -573 11 -43 75 -107 124 -123 25 -9
129 -14 314 -16 266 -4 276 -3 300 16 15 13 18 19 7 15 -15 -5 -17 3 -20 63
l-3 68 -241 5 c-259 5 -261 6 -290 61 -11 23 -14 93 -15 361 -1 183 -5 392 -8
463 l-8 130 -3 -130 -4 -130 -6 90 c-5 71 -7 78 -8 35 -2 -40 -5 -51 -12 -40
-7 10 -10 -9 -11 -65 -1 -44 -3 -71 -6 -60 -10 46 -13 48 -33 25 -16 -19 -21
-20 -33 -8 -22 21 -39 83 -33 120 3 18 2 78 -2 133 -6 69 -10 -65 -13 -440z"/>
<path d="M3700 2124 c0 -5 7 -17 14 -27 13 -16 14 -16 20 -1 4 9 4 19 1 22 -3
3 -5 -1 -5 -9 -1 -10 -5 -8 -15 5 -8 11 -15 16 -15 10z"/>
<path d="M3740 2069 c0 -5 9 -9 20 -9 11 0 20 2 20 4 0 2 -9 6 -20 9 -11 3
-20 1 -20 -4z"/>
<path d="M3806 2038 c10 -12 13 -18 7 -14 -7 4 -13 3 -13 -2 0 -4 24 -16 53
-25 64 -20 84 -21 42 -2 l-30 13 40 -4 c36 -3 34 -2 -15 12 -30 8 -62 22 -71
30 -24 22 -34 16 -13 -8z"/>
<path d="M3767 2039 c7 -7 15 -10 18 -7 3 3 -2 9 -12 12 -14 6 -15 5 -6 -5z"/>
<path d="M4455 2010 c-3 -5 -1 -10 4 -10 6 0 11 5 11 10 0 6 -2 10 -4 10 -3 0
-8 -4 -11 -10z"/>
<path d="M4185 2003 c61 -2 119 -7 130 -12 11 -5 40 -12 65 -14 25 -3 39 -2
31 0 -10 4 -7 9 10 19 20 10 -5 12 -161 11 -107 0 -139 -2 -75 -4z"/>
<path d="M4438 1983 c7 -3 16 -2 19 1 4 3 -2 6 -13 5 -11 0 -14 -3 -6 -6z"/>
<path d="M2785 3366 c-37 -11 -78 -34 -113 -61 -50 -38 -110 -131 -122 -188
-8 -36 -11 -184 -8 -482 l3 -430 28 -59 c28 -61 105 -146 132 -146 8 0 15 -4
15 -9 0 -5 18 -16 39 -25 33 -13 93 -16 358 -16 l318 -2 27 31 c26 29 28 38
28 111 0 43 -4 89 -9 102 -5 13 -8 27 -7 31 0 5 -15 15 -34 24 -28 12 -88 15
-287 16 -138 1 -255 6 -259 10 -4 4 -9 52 -10 107 -2 89 0 101 16 110 11 6
109 9 241 8 l223 -2 28 26 c27 25 28 29 28 125 0 88 -3 104 -23 134 l-23 34
-239 5 -240 5 -9 52 c-5 29 -5 72 0 99 9 45 12 50 54 66 38 14 79 17 258 17
237 0 254 4 266 62 10 50 7 158 -5 199 -8 28 -19 40 -43 48 -46 17 -577 15
-631 -2z m624 -11 c38 -19 41 -30 41 -145 0 -145 9 -140 -277 -140 -297 0
-303 -3 -303 -152 0 -46 5 -90 10 -98 8 -13 47 -15 241 -17 l232 -1 26 -26
c24 -25 26 -32 26 -121 0 -85 -2 -97 -23 -117 -22 -22 -28 -23 -254 -26 -146
-2 -237 -7 -245 -14 -16 -13 -18 -200 -3 -229 10 -18 24 -19 260 -19 137 0
260 -4 273 -9 50 -19 57 -36 57 -137 0 -88 -2 -97 -25 -120 l-25 -25 -303 3
c-336 4 -352 7 -434 74 -59 49 -97 107 -117 184 -15 57 -17 113 -14 475 3 402
3 411 26 459 47 103 130 175 231 202 71 19 563 19 600 -1z"/>
<path d="M3032 3143 c59 -2 158 -2 220 0 62 1 14 3 -107 3 -121 0 -172 -2
-113 -3z"/>
<path d="M2627 3043 c-3 -5 -6 -181 -8 -393 -2 -284 1 -396 10 -428 9 -34 10
-47 0 -58 -10 -12 -9 -13 4 -9 23 10 49 -33 35 -59 -9 -17 -8 -19 3 -8 20 19
30 14 25 -12 -3 -19 -1 -23 10 -19 8 3 45 -4 82 -16 63 -20 84 -21 342 -19
l275 3 0 75 0 75 -263 5 -264 5 -35 38 -35 38 4 130 c3 125 4 129 31 156 l28
28 222 -3 c122 -1 228 1 235 6 9 6 12 30 10 78 l-3 69 -75 6 c-41 4 -147 7
-235 8 -88 1 -165 5 -171 9 -31 20 -44 72 -45 181 -1 103 -8 134 -23 95 -3 -9
-6 -28 -7 -42 l-1 -27 -8 25 -8 25 -7 -22 c-9 -27 -22 -30 -28 -5 -3 9 -5 3
-6 -14 -1 -29 -31 -59 -31 -32 0 6 -8 4 -18 -5 -36 -33 -44 -22 -40 53 3 71 3
76 -5 63z m98 -963 c3 -5 -1 -10 -10 -10 -9 0 -13 5 -10 10 3 6 8 10 10 10 2
0 7 -4 10 -10z"/>
<path d="M2735 2020 c39 -26 55 -26 25 0 -13 11 -30 20 -39 20 -10 0 -5 -8 14
-20z"/>
<path d="M2928 2003 c23 -2 59 -2 80 0 20 2 1 4 -43 4 -44 0 -61 -2 -37 -4z"/>
<path d="M3068 2003 c12 -2 30 -2 40 0 9 3 -1 5 -23 4 -22 0 -30 -2 -17 -4z"/>
<path d="M3298 2003 c12 -2 32 -2 45 0 12 2 2 4 -23 4 -25 0 -35 -2 -22 -4z"/>
<path d="M3365 1990 c-3 -6 1 -7 9 -4 18 7 21 14 7 14 -6 0 -13 -4 -16 -10z"/>
<path d="M2858 1983 c7 -3 16 -2 19 1 4 3 -2 6 -13 5 -11 0 -14 -3 -6 -6z"/>
<path d="M6104 3068 c3 -22 22 -29 20 -8 -3 25 -5 30 -14 30 -5 0 -8 -10 -6
-22z"/>
</g>
</svg>
